<?xml version="1.0" encoding="UTF-8" standalone="no"?>
<svg width="172px" height="58px" viewBox="0 0 172 58" version="1.1" xmlns="http://www.w3.org/2000/svg" xmlns:xlink="http://www.w3.org/1999/xlink">
    <!-- Generator: Sketch 3.8.3 (29802) - http://www.bohemiancoding.com/sketch -->
    <title>btn_store_line_appstore</title>
    <desc>Created with Sketch.</desc>
    <defs></defs>
    <g id="web_index_2" stroke="none" stroke-width="1" fill="none" fill-rule="evenodd">
        <path d="M3.6403532,1.20833333 C2.29841128,1.20833333 1.21055242,2.29370874 1.21055242,3.6324205 L1.21055242,54.3675795 C1.21055242,55.7063659 2.29344987,56.7916667 3.6403532,56.7916667 L168.359647,56.7916667 C169.701589,56.7916667 170.789448,55.7062913 170.789448,54.3675795 L170.789448,3.6324205 C170.789448,2.29363412 169.70655,1.20833333 168.359647,1.20833333 L3.6403532,1.20833333 L3.6403532,1.20833333 L3.6403532,1.20833333 Z M3.6403532,7.10542736e-14 L3.6403532,7.10542736e-14 L168.359647,7.10542736e-14 C170.373648,7.10542736e-14 172,1.62481929 172,3.6324205 L172,54.3675795 C172,56.3737959 170.369998,58 168.359647,58 L3.6403532,58 C1.62635193,58 -1.56319402e-13,56.3751807 -1.56319402e-13,54.3675795 L-1.56319402e-13,3.6324205 C-1.56319402e-13,1.62620411 1.63000244,7.10542736e-14 3.6403532,7.10542736e-14 L3.6403532,7.10542736e-14 L3.6403532,7.10542736e-14 Z" id="Rectangle-3" fill="#5D5D5D"></path>
        <path d="M18.191761,11.7391304 C16.6495433,11.7391304 15.3993289,13.1045815 15.3993289,14.7955145 L15.3993289,46.4218768 C15.3993289,48.1098711 16.6481604,49.4782609 18.191761,49.4782609 L32.0968296,49.4782609 C33.6390473,49.4782609 34.8892617,48.1128098 34.8892617,46.4218768 L34.8892617,14.7955145 C34.8892617,13.1075202 33.6404302,11.7391304 32.0968296,11.7391304 L18.191761,11.7391304 L18.191761,11.7391304 Z M17.2265101,16.6885246 L17.2265101,44.5288667 L33.0620805,44.5288667 L33.0620805,16.6885246 L17.2265101,16.6885246 L17.2265101,16.6885246 Z M25.1442953,48.2409123 C25.8170448,48.2409123 26.3624161,47.6869325 26.3624161,47.0035638 C26.3624161,46.3201951 25.8170448,45.7662153 25.1442953,45.7662153 C24.4715458,45.7662153 23.9261745,46.3201951 23.9261745,47.0035638 C23.9261745,47.6869325 24.4715458,48.2409123 25.1442953,48.2409123 L25.1442953,48.2409123 Z M22.7080537,14.2138275 C22.7080537,14.5555119 22.9174182,14.8325018 23.1930595,14.8325018 L27.0955311,14.8325018 C27.3633924,14.8325018 27.5805369,14.5455191 27.5805369,14.2138275 C27.5805369,13.8721431 27.3711724,13.5951532 27.0955311,13.5951532 L23.1930595,13.5951532 C22.9251982,13.5951532 22.7080537,13.8821359 22.7080537,14.2138275 Z" id="iPhone-Vector" fill="#5D5D5D"></path>
        <path d="M49.7388415,19.8795452 L50.7912979,22.9765886 L52.1507207,22.9765886 L48.7887073,13.1303278 L47.2538751,13.1303278 L43.9064791,22.9765886 L45.2220496,22.9765886 L46.245271,19.8795452 L49.7388415,19.8795452 L49.7388415,19.8795452 Z M46.5083851,18.8861538 L47.4731368,16.0374582 C47.6631637,15.4385017 47.8239556,14.8395452 47.9701301,14.2551973 L47.999365,14.2551973 C48.1455395,14.8249365 48.291714,15.4092843 48.5109757,16.0520669 L49.4757274,18.8861538 L46.5083851,18.8861538 L46.5083851,18.8861538 Z M52.6623314,15.9059799 L55.3519422,22.9765886 L56.5798079,22.9765886 L59.3571234,15.9059799 L58.012318,15.9059799 L56.6382777,19.8795452 C56.4043985,20.5223278 56.1997543,21.1066756 56.0389623,21.6910234 L55.99511,21.6910234 C55.8489355,21.1066756 55.6589086,20.5223278 55.4250294,19.8795452 L54.0363717,15.9059799 L52.6623314,15.9059799 L52.6623314,15.9059799 Z M65.8911234,22.9765886 C65.8034187,22.4945017 65.7741838,21.8955452 65.7741838,21.2819799 L65.7741838,18.637806 C65.7741838,17.2207625 65.2479556,15.7452843 63.084573,15.7452843 C62.1929086,15.7452843 61.3450965,15.9936321 60.7603985,16.3734582 L61.0527475,17.2207625 C61.5497408,16.8993712 62.236761,16.6948495 62.8945462,16.6948495 C64.3416737,16.6948495 64.5024657,17.7466756 64.5024657,18.3310234 L64.5024657,18.4771104 C61.7690026,18.4625017 60.2487878,19.3974582 60.2487878,21.1066756 C60.2487878,22.1292843 60.9796603,23.1372843 62.4121704,23.1372843 C63.4207744,23.1372843 64.1808818,22.6405886 64.5755529,22.0854582 L64.6194053,22.0854582 L64.7217274,22.9765886 L65.8911234,22.9765886 L65.8911234,22.9765886 Z M64.5317006,20.5953712 C64.5317006,20.7268495 64.5024657,20.8729365 64.4586133,21.0044147 C64.253969,21.6033712 63.669271,22.1877191 62.7483717,22.1877191 C62.0905865,22.1877191 61.5351234,21.7932843 61.5351234,20.9605886 C61.5351234,19.5873712 63.1284254,19.3390234 64.5317006,19.3682408 L64.5317006,20.5953712 L64.5317006,20.5953712 Z M69.4285462,22.9765886 L69.4285462,15.9059799 L68.1422106,15.9059799 L68.1422106,22.9765886 L69.4285462,22.9765886 L69.4285462,22.9765886 Z M68.7853784,13.1157191 C68.31762,13.1157191 67.9814187,13.4663278 67.9814187,13.9191973 C67.9814187,14.3574582 68.3030026,14.7080669 68.7561435,14.7080669 C69.2677542,14.7080669 69.5893381,14.3574582 69.5747207,13.9191973 C69.5747207,13.4663278 69.2677542,13.1157191 68.7853784,13.1157191 L68.7853784,13.1157191 L68.7853784,13.1157191 Z M71.8550428,22.9765886 L73.1413784,22.9765886 L73.1413784,12.6044147 L71.8550428,12.6044147 L71.8550428,22.9765886 L71.8550428,22.9765886 Z M80.6839824,22.9765886 C80.5962777,22.4945017 80.5670428,21.8955452 80.5670428,21.2819799 L80.5670428,18.637806 C80.5670428,17.2207625 80.0408146,15.7452843 77.8774321,15.7452843 C76.9857676,15.7452843 76.1379556,15.9936321 75.5532576,16.3734582 L75.8456066,17.2207625 C76.3425999,16.8993712 77.02962,16.6948495 77.6874052,16.6948495 C79.1345327,16.6948495 79.2953247,17.7466756 79.2953247,18.3310234 L79.2953247,18.4771104 C76.5618616,18.4625017 75.0416468,19.3974582 75.0416468,21.1066756 C75.0416468,22.1292843 75.7725193,23.1372843 77.2050294,23.1372843 C78.2136334,23.1372843 78.9737408,22.6405886 79.3684119,22.0854582 L79.4122643,22.0854582 L79.5145864,22.9765886 L80.6839824,22.9765886 L80.6839824,22.9765886 Z M79.3245596,20.5953712 C79.3245596,20.7268495 79.2953247,20.8729365 79.2514723,21.0044147 C79.0468281,21.6033712 78.4621301,22.1877191 77.5412307,22.1877191 C76.8834455,22.1877191 76.3279824,21.7932843 76.3279824,20.9605886 C76.3279824,19.5873712 77.9212844,19.3390234 79.3245596,19.3682408 L79.3245596,20.5953712 L79.3245596,20.5953712 Z M83.987526,22.9765886 L84.0459958,21.807893 L84.0898482,21.807893 C84.6160764,22.7428495 85.4346535,23.1372843 86.457875,23.1372843 C88.0365596,23.1372843 89.6298616,21.8809365 89.6298616,19.3536321 C89.6444791,17.2061538 88.4019958,15.7452843 86.6479019,15.7452843 C85.5077408,15.7452843 84.6891636,16.2565886 84.2360227,17.0454582 L84.2067878,17.0454582 L84.2067878,12.6044147 L82.9350697,12.6044147 L82.9350697,21.1505017 C82.9350697,21.7786756 82.9058348,22.4945017 82.8765999,22.9765886 L83.987526,22.9765886 L83.987526,22.9765886 Z M84.2067878,18.8715452 C84.2067878,18.6670234 84.2506401,18.4917191 84.279875,18.3456321 C84.5429891,17.3668495 85.3615663,16.767893 86.2386133,16.767893 C87.6126535,16.767893 88.343526,17.9804147 88.343526,19.3974582 C88.343526,21.0190234 87.5395663,22.1146756 86.1947609,22.1146756 C85.2592442,22.1146756 84.5137542,21.5011104 84.2652576,20.6099799 C84.2360227,20.463893 84.2067878,20.3031973 84.2067878,20.1425017 L84.2067878,18.8715452 L84.2067878,18.8715452 Z M91.5447475,22.9765886 L92.8310831,22.9765886 L92.8310831,12.6044147 L91.5447475,12.6044147 L91.5447475,22.9765886 L91.5447475,22.9765886 Z M100.973003,19.6750234 C100.98762,19.5435452 101.016855,19.3390234 101.016855,19.0760669 C101.016855,17.775893 100.402922,15.7452843 98.0933649,15.7452843 C96.0323045,15.7452843 94.7752039,17.4252843 94.7752039,19.5581538 C94.7752039,21.6910234 96.0761569,23.1226756 98.2541569,23.1226756 C99.3797005,23.1226756 100.154425,22.8889365 100.607566,22.6844147 L100.388305,21.7640669 C99.9059287,21.9685886 99.3504656,22.1292843 98.4295663,22.1292843 C97.1432307,22.1292843 96.0323045,21.4134582 96.0030696,19.6750234 L100.973003,19.6750234 L100.973003,19.6750234 Z M96.0176871,18.7546756 C96.1200092,17.8635452 96.6900898,16.6656321 97.9910428,16.6656321 C99.4381703,16.6656321 99.7889891,17.9365886 99.7743717,18.7546756 L96.0176871,18.7546756 L96.0176871,18.7546756 Z M109.290331,15.7452843 C107.331593,15.7452843 105.782143,17.1331104 105.782143,19.4997191 C105.782143,21.7348495 107.258506,23.1372843 109.173392,23.1372843 C110.883633,23.1372843 112.696197,21.997806 112.696197,19.3828495 C112.696197,17.2207625 111.322157,15.7452843 109.290331,15.7452843 L109.290331,15.7452843 L109.290331,15.7452843 Z M109.261096,16.7094582 C110.781311,16.7094582 111.380627,18.2287625 111.380627,19.4266756 C111.380627,21.0190234 110.459727,22.1731104 109.231862,22.1731104 C107.974761,22.1731104 107.083096,21.0044147 107.083096,19.455893 C107.083096,18.111893 107.740882,16.7094582 109.261096,16.7094582 L109.261096,16.7094582 L109.261096,16.7094582 Z M114.611083,22.9765886 L115.897419,22.9765886 L115.897419,18.7254582 C115.897419,18.5063278 115.926654,18.2871973 115.985123,18.1265017 C116.204385,17.4106756 116.86217,16.8117191 117.709982,16.8117191 C118.923231,16.8117191 119.347137,17.7612843 119.347137,18.9007625 L119.347137,22.9765886 L120.633472,22.9765886 L120.633472,18.7546756 C120.633472,16.3296321 119.113258,15.7452843 118.133888,15.7452843 C116.964492,15.7452843 116.145915,16.4026756 115.795096,17.0746756 L115.765862,17.0746756 L115.692774,15.9059799 L114.552613,15.9059799 C114.596466,16.4903278 114.611083,17.0892843 114.611083,17.8197191 L114.611083,22.9765886 L114.611083,22.9765886 Z M126.699714,14.2113712 L126.699714,15.9059799 L125.603405,15.9059799 L125.603405,16.8847625 L126.699714,16.8847625 L126.699714,20.7414582 C126.699714,21.5741538 126.831271,22.2023278 127.196707,22.5821538 C127.503674,22.9327625 127.986049,23.1226756 128.585365,23.1226756 C129.082358,23.1226756 129.477029,23.0496321 129.725526,22.9473712 L129.667056,21.9831973 C129.506264,22.0270234 129.257768,22.0708495 128.921566,22.0708495 C128.205311,22.0708495 127.956815,21.5741538 127.956815,20.6976321 L127.956815,16.8847625 L129.798613,16.8847625 L129.798613,15.9059799 L127.956815,15.9059799 L127.956815,13.8753712 L126.699714,14.2113712 L126.699714,14.2113712 Z M131.53809,22.9765886 L132.824425,22.9765886 L132.824425,18.7108495 C132.824425,18.4625017 132.839043,18.2725886 132.91213,18.0972843 C133.146009,17.3960669 133.803794,16.8117191 134.636989,16.8117191 C135.850237,16.8117191 136.274143,17.775893 136.274143,18.9153712 L136.274143,22.9765886 L137.560479,22.9765886 L137.560479,18.7692843 C137.560479,16.3296321 136.040264,15.7452843 135.09013,15.7452843 C134.607754,15.7452843 134.154613,15.8913712 133.77456,16.1105017 C133.379888,16.3296321 133.058305,16.6510234 132.85366,17.0162408 L132.824425,17.0162408 L132.824425,12.6044147 L131.53809,12.6044147 L131.53809,22.9765886 L131.53809,22.9765886 Z M145.629311,19.6750234 C145.643929,19.5435452 145.673164,19.3390234 145.673164,19.0760669 C145.673164,17.775893 145.059231,15.7452843 142.749674,15.7452843 C140.688613,15.7452843 139.431513,17.4252843 139.431513,19.5581538 C139.431513,21.6910234 140.732466,23.1226756 142.910466,23.1226756 C144.036009,23.1226756 144.810734,22.8889365 145.263875,22.6844147 L145.044613,21.7640669 C144.562237,21.9685886 144.006774,22.1292843 143.085875,22.1292843 C141.799539,22.1292843 140.688613,21.4134582 140.659378,19.6750234 L145.629311,19.6750234 L145.629311,19.6750234 Z M140.673996,18.7546756 C140.776318,17.8635452 141.346398,16.6656321 142.647351,16.6656321 C144.094479,16.6656321 144.445298,17.9365886 144.43068,18.7546756 L140.673996,18.7546756 L140.673996,18.7546756 Z" id="Available-on-the" fill="#606060"></path>
        <path d="M55.3564209,40.0155814 L57.3628058,45.9197324 L59.9543864,45.9197324 L53.5451011,27.148988 L50.6191231,27.148988 L44.2377043,45.9197324 L46.7456855,45.9197324 L48.6963375,40.0155814 L55.3564209,40.0155814 L55.3564209,40.0155814 Z M49.1979338,38.1217971 L51.03712,32.6910921 C51.3993839,31.5492516 51.7059149,30.407411 51.9845795,29.2934203 L52.0403124,29.2934203 C52.318977,30.3795613 52.5976416,31.493552 53.0156385,32.7189419 L54.8548247,38.1217971 L49.1979338,38.1217971 L49.1979338,38.1217971 Z M61.5592893,51.4339867 L63.9836711,51.4339867 L63.9836711,44.1094974 L64.039404,44.1094974 C64.8475313,45.4462864 66.4080529,46.2260799 68.1915062,46.2260799 C71.3682823,46.2260799 74.3221269,43.8309998 74.3221269,38.9851399 C74.3221269,34.8912239 71.8698786,32.1340967 68.609503,32.1340967 C66.4080529,32.1340967 64.8196648,33.1088386 63.8164723,34.751975 L63.7607394,34.751975 L63.6492736,32.4404442 L61.4478234,32.4404442 C61.5035563,33.7215336 61.5592893,35.114022 61.5592893,36.8407077 L61.5592893,51.4339867 L61.5592893,51.4339867 Z M63.9836711,38.1217971 C63.9836711,37.7875999 64.0672704,37.4255529 64.1508698,37.1192054 C64.6245996,35.2811206 66.1851212,34.0835806 67.8571087,34.0835806 C70.4486892,34.0835806 71.8698786,36.3951114 71.8698786,39.096539 C71.8698786,42.1878634 70.3650899,44.3044458 67.7735093,44.3044458 C66.0179225,44.3044458 64.5410002,43.1347555 64.0951369,41.4359196 C64.039404,41.1295721 63.9836711,40.7953749 63.9836711,40.4333279 L63.9836711,38.1217971 L63.9836711,38.1217971 Z M76.4286259,51.4339867 L78.8530078,51.4339867 L78.8530078,44.1094974 L78.9087407,44.1094974 C79.7168679,45.4462864 81.2773896,46.2260799 83.0608429,46.2260799 C86.237619,46.2260799 89.1914635,43.8309998 89.1914635,38.9851399 C89.1914635,34.8912239 86.7392153,32.1340967 83.4788397,32.1340967 C81.2773896,32.1340967 79.6890015,33.1088386 78.685809,34.751975 L78.6300761,34.751975 L78.5186103,32.4404442 L76.3171601,32.4404442 C76.372893,33.7215336 76.4286259,35.114022 76.4286259,36.8407077 L76.4286259,51.4339867 L76.4286259,51.4339867 Z M78.8530078,38.1217971 C78.8530078,37.7875999 78.9366071,37.4255529 79.0202065,37.1192054 C79.4939363,35.2811206 81.0544579,34.0835806 82.7264454,34.0835806 C85.3180259,34.0835806 86.7392153,36.3951114 86.7392153,39.096539 C86.7392153,42.1878634 85.2344266,44.3044458 82.642846,44.3044458 C80.8872592,44.3044458 79.4103369,43.1347555 78.9644736,41.4359196 C78.9087407,41.1295721 78.8530078,40.7953749 78.8530078,40.4333279 L78.8530078,38.1217971 L78.8530078,38.1217971 Z M95.3551138,45.0006901 C96.3583062,45.6690845 98.3368247,46.1982301 100.148144,46.1982301 C104.578911,46.1982301 106.724628,43.6917509 106.724628,40.7953749 C106.724628,38.0382478 105.108374,36.5065105 101.931598,35.2811206 C99.3400172,34.2785289 98.1974924,33.4151861 98.1974924,31.6606506 C98.1974924,30.3795613 99.1728185,28.847824 101.736533,28.847824 C103.436386,28.847824 104.690377,29.4048193 105.303439,29.7390166 L105.972234,27.761683 C105.13624,27.2882369 103.742918,26.8426406 101.820132,26.8426406 C98.169626,26.8426406 95.7452442,29.0149226 95.7452442,31.9391483 C95.7452442,34.5848764 97.6401633,36.1723132 100.705474,37.2584542 C103.241321,38.2331962 104.244514,39.2357878 104.244514,40.9903233 C104.244514,42.8841076 102.795458,44.1930468 100.315343,44.1930468 C98.6433558,44.1930468 97.0549677,43.6360514 95.9681758,42.9676569 L95.3551138,45.0006901 L95.3551138,45.0006901 Z M109.44419,29.209871 L109.44419,32.4404442 L107.354205,32.4404442 L107.354205,34.3063787 L109.44419,34.3063787 L109.44419,41.6587178 C109.44419,43.2461546 109.694988,44.4436947 110.391649,45.1677887 C110.976845,45.8361831 111.896438,46.1982301 113.038963,46.1982301 C113.986422,46.1982301 114.738817,46.0589813 115.212546,45.8640329 L115.101081,44.0259481 C114.79455,44.1094974 114.32082,44.1930468 113.679891,44.1930468 C112.314435,44.1930468 111.840705,43.2461546 111.840705,41.5751685 L111.840705,34.3063787 L115.351879,34.3063787 L115.351879,32.4404442 L111.840705,32.4404442 L111.840705,28.5693263 L109.44419,29.209871 L109.44419,29.209871 Z M122.669405,32.1340967 C118.9353,32.1340967 115.981455,34.7798248 115.981455,39.2914874 C115.981455,43.5525021 118.795968,46.2260799 122.446474,46.2260799 C125.706849,46.2260799 129.16229,44.0537979 129.16229,39.0686892 C129.16229,34.9469234 126.542843,32.1340967 122.669405,32.1340967 L122.669405,32.1340967 L122.669405,32.1340967 Z M122.613672,33.9721815 C125.511784,33.9721815 126.654309,36.8685575 126.654309,39.1522385 C126.654309,42.1878634 124.898722,44.3879951 122.55794,44.3879951 C120.161424,44.3879951 118.46157,42.1600136 118.46157,39.2079381 C118.46157,36.6457593 119.715561,33.9721815 122.613672,33.9721815 L122.613672,33.9721815 L122.613672,33.9721815 Z M131.268789,45.9197324 L133.693171,45.9197324 L133.693171,38.734492 C133.693171,38.3167455 133.748904,37.9268487 133.804637,37.5926515 C134.139034,35.7545667 135.365158,34.4456276 137.092879,34.4456276 C137.427276,34.4456276 137.678074,34.4734773 137.928872,34.5291769 L137.928872,32.217646 C137.705941,32.1619465 137.510876,32.1340967 137.232211,32.1340967 C135.58809,32.1340967 134.111168,33.2759372 133.498106,35.0861722 L133.38664,35.0861722 L133.30304,32.4404442 L131.157323,32.4404442 C131.240923,33.6936838 131.268789,35.0583225 131.268789,36.6457593 L131.268789,45.9197324 L131.268789,45.9197324 Z M149.95583,39.6256846 C149.983697,39.3750367 150.03943,38.9851399 150.03943,38.4838441 C150.03943,36.0052146 148.869039,32.1340967 144.466138,32.1340967 C140.536968,32.1340967 138.140452,35.3368202 138.140452,39.4028865 C138.140452,43.4689528 140.620567,46.1982301 144.772669,46.1982301 C146.918387,46.1982301 148.395309,45.7526338 149.259169,45.3627371 L148.841172,43.6082016 C147.921579,43.9980984 146.862654,44.3044458 145.107067,44.3044458 C142.654819,44.3044458 140.536968,42.9398071 140.481235,39.6256846 L149.95583,39.6256846 L149.95583,39.6256846 Z M140.509101,37.8711492 C140.704167,36.1723132 141.790958,33.8886322 144.271073,33.8886322 C147.029852,33.8886322 147.698647,36.3115621 147.670781,37.8711492 L140.509101,37.8711492 L140.509101,37.8711492 Z" id="App-Store" fill="#606060"></path>
    </g>
</svg>