<?xml version="1.0" encoding="UTF-8" standalone="no"?>
<svg width="44px" height="44px" viewBox="0 0 44 44" version="1.1" xmlns="http://www.w3.org/2000/svg" xmlns:xlink="http://www.w3.org/1999/xlink">
    <!-- Generator: Sketch Beta 3.8.3 (29801) - http://www.bohemiancoding.com/sketch -->
    <title>ic_nav_back</title>
    <desc>Created with Sketch Beta.</desc>
    <defs></defs>
    <g id="web_index_2-copy" stroke="none" stroke-width="1" fill="none" fill-rule="evenodd">
        <g id="circled_left_2" transform="translate(8.000000, 8.000000)" fill="#FFFFFF">
            <g id="Слой_1">
                <g id="Group">
                    <path d="M14,2.8 C20.1754,2.8 25.2,7.8246 25.2,14 C25.2,20.1754 20.1754,25.2 14,25.2 C7.8246,25.2 2.8,20.1754 2.8,14 C2.8,7.8246 7.8246,2.8 14,2.8 L14,2.8 Z M13.3,12.6 L13.3,8.4 L6.3,14 L13.3,19.6 L13.3,15.4 L21.7,15.4 L21.7,12.6 L13.3,12.6 Z M14,0 C6.2678,0 0,6.2685 0,14 C0,21.7315 6.2678,28 14,28 C21.7322,28 28,21.7315 28,14 C28,6.2685 21.7322,0 14,0 Z" id="Combined-Shape"></path>
                </g>
            </g>
        </g>
    </g>
</svg>