<?xml version="1.0" encoding="UTF-8" standalone="no"?>
<svg width="172px" height="58px" viewBox="0 0 172 58" version="1.1" xmlns="http://www.w3.org/2000/svg" xmlns:xlink="http://www.w3.org/1999/xlink">
    <!-- Generator: Sketch 3.8.3 (29802) - http://www.bohemiancoding.com/sketch -->
    <title>btn_store_line_playstore</title>
    <desc>Created with Sketch.</desc>
    <defs></defs>
    <g id="web_index_2" stroke="none" stroke-width="1" fill="none" fill-rule="evenodd">
        <path d="M3.6403532,1.20833333 C2.29841128,1.20833333 1.21055242,2.29370874 1.21055242,3.6324205 L1.21055242,54.3675795 C1.21055242,55.7063659 2.29344987,56.7916667 3.6403532,56.7916667 L168.359647,56.7916667 C169.701589,56.7916667 170.789448,55.7062913 170.789448,54.3675795 L170.789448,3.6324205 C170.789448,2.29363412 169.70655,1.20833333 168.359647,1.20833333 L3.6403532,1.20833333 L3.6403532,1.20833333 L3.6403532,1.20833333 Z M3.6403532,7.10542736e-14 L3.6403532,7.10542736e-14 L168.359647,7.10542736e-14 C170.373648,7.10542736e-14 172,1.62481929 172,3.6324205 L172,54.3675795 C172,56.3737959 170.369998,58 168.359647,58 L3.6403532,58 C1.62635193,58 -1.56319402e-13,56.3751807 -1.56319402e-13,54.3675795 L-1.56319402e-13,3.6324205 C-1.56319402e-13,1.62620411 1.63000244,7.10542736e-14 3.6403532,7.10542736e-14 L3.6403532,7.10542736e-14 L3.6403532,7.10542736e-14 Z" id="Rectangle-4" fill="#5D5D5D"></path>
        <path d="M119.390878,41.7293283 L118.143487,42.9011431 C117.855984,43.0589763 117.569255,43.2422167 117.283298,43.3723328 C116.416925,43.7642209 115.535869,43.8627704 114.752965,43.8627704 C113.919826,43.8627704 112.613698,43.8096461 111.282066,42.8495586 C109.431074,41.5499375 108.621894,39.3179459 108.621894,37.3723638 C108.621894,33.3441542 111.91349,31.3685452 114.597621,31.3685452 C115.536642,31.3685452 116.500394,31.6026002 117.28407,32.0961175 C118.587107,32.9538059 118.924072,34.0694167 119.111104,34.6676428 L112.979259,37.1352291 L110.971378,37.2907525 C111.62135,40.5929297 113.86418,42.5138745 116.342731,42.5138745 C117.580847,42.5138745 118.499774,42.1119774 119.342961,41.6962219 C119.342188,41.6969918 119.511443,41.6092212 119.390878,41.7293283 L119.390878,41.7293283 Z M115.691986,35.1596202 C116.190478,34.9794595 116.448613,34.8231662 116.448613,34.4620747 C116.448613,33.4242256 115.270006,32.2262336 113.863407,32.2262336 C112.820824,32.2262336 110.865496,33.0346472 110.865496,35.8409974 C110.865496,36.2790806 110.917278,36.7456508 110.944328,37.2122209 L115.691986,35.1596202 L115.691986,35.1596202 Z" id="Shape" fill="#575757"></path>
        <path d="M106.571505,41.5276099 C106.571505,42.537742 106.752353,42.6948052 107.609451,42.7733368 C108.056163,42.8256912 108.501328,42.8495586 108.942629,42.9011431 L107.978104,43.473192 L103.381926,43.473192 C103.984754,42.6940353 104.088317,42.6170435 104.088317,42.097349 L104.088317,41.5176009 L104.07827,26.0707412 L102.048748,26.0707412 L104.001757,25.1329814 L107.731563,25.1329814 C106.923155,25.5987817 106.682024,25.8836512 106.577688,26.7921542 L106.571505,41.5276099 L106.571505,41.5276099 Z" id="Shape" fill="#575757"></path>
        <path d="M99.4434485,32.643529 C100.04164,33.1339666 101.292122,34.1741255 101.292122,36.1489645 C101.292122,38.072989 100.203167,38.9799521 99.1049373,39.8384103 C98.7679718,40.1764042 98.3745878,40.5428851 98.3745878,41.1095445 C98.3745878,41.6839032 98.7687447,41.9957199 99.052383,42.228235 L99.9944953,42.9527276 C101.139869,43.9158947 102.183998,44.7989904 102.183998,46.5928987 C102.183998,49.0373875 99.8097825,51.5011243 95.3233499,51.5011243 C91.5440811,51.5011243 89.717048,49.7087558 89.717048,47.7862712 C89.717048,46.8500512 90.1838534,45.5250228 91.7272481,44.6180597 C93.3440641,43.6333349 95.5351126,43.501679 96.7075361,43.4246872 C96.3412021,42.9534975 95.9230866,42.4599803 95.9230866,41.6546463 C95.9230866,41.2142533 96.056018,40.9517114 96.1843122,40.6422045 C95.8991281,40.6691516 95.6116254,40.6968686 95.3503999,40.6968686 C92.5843461,40.6968686 91.0200843,38.6411882 91.0200843,36.6147647 C91.0200843,35.4198524 91.5672668,34.094824 92.6910003,33.1331967 C94.1779764,31.913647 95.9509095,31.7034595 97.3598271,31.7034595 L102.734272,31.7034595 L101.063356,32.643529 L99.4434485,32.643529 L99.4434485,32.643529 Z M97.5947755,44.1776667 C97.381467,44.1499497 97.2531729,44.1499497 96.9950387,44.1499497 C96.7585446,44.1499497 95.349627,44.2007643 94.2583535,44.5657053 C93.6810296,44.7758928 92.0124322,45.3972165 92.0124322,47.2434792 C92.0124322,49.0851224 93.8139609,50.4124606 96.6016547,50.4124606 C99.1049373,50.4124606 100.435024,49.2167784 100.435024,47.6068804 C100.434251,46.2818519 99.5740613,45.5827666 97.5947755,44.1776667 L97.5947755,44.1776667 Z M98.3452192,39.2409542 C98.9480474,38.6419582 99.0006016,37.8135267 99.0006016,37.342337 C99.0006016,35.4737467 97.8822781,32.5634576 95.7144153,32.5634576 C95.0381658,32.5634576 94.3054977,32.9022214 93.8897009,33.4242256 C93.4491726,33.9654778 93.3170141,34.6676428 93.3170141,35.3428606 C93.3170141,37.0828747 94.3348663,39.9685264 96.5761505,39.9685264 C97.2292143,39.9685264 97.9325138,39.6520902 98.3452192,39.2409542 L98.3452192,39.2409542 Z" id="Shape" fill="#575757"></path>
        <path d="M83.2737425,43.8096461 C79.1281396,43.8096461 76.9100411,40.5929297 76.9100411,37.6818707 C76.9100411,34.2796042 79.6985078,31.3685452 83.6648079,31.3685452 C87.4989496,31.3685452 89.9002151,34.3589058 89.9002151,37.4986303 C89.9002151,40.5644428 87.5267724,43.8096461 83.2737425,43.8096461 L83.2737425,43.8096461 Z M86.5351974,41.7077706 C87.1658484,40.8762595 87.318874,39.8384103 87.318874,38.8267384 C87.318874,36.5385429 86.224509,32.1746491 82.9901041,32.1746491 C82.1299147,32.1746491 81.2635424,32.5095633 80.6390743,33.0569749 C79.6204493,33.9662477 79.438828,35.1080357 79.438828,36.229036 C79.438828,38.7959417 80.7117228,43.0297194 83.8727063,43.0297194 C84.8936499,43.0297194 85.9346878,42.537742 86.5351974,41.7077706 L86.5351974,41.7077706 Z" id="Shape" fill="#575757"></path>
        <path d="M69.3940106,43.8096461 C65.2476349,43.8096461 63.0326278,40.5929297 63.0326278,37.6818707 C63.0326278,34.2796042 65.8218673,31.3685452 69.7866217,31.3685452 C73.6184448,31.3685452 76.0173917,34.3589058 76.0173917,37.4986303 C76.0181646,40.5644428 73.6478134,43.8096461 69.3940106,43.8096461 L69.3940106,43.8096461 Z M72.6562383,41.7077706 C73.2822522,40.8762595 73.4383692,39.8384103 73.4383692,38.8267384 C73.4383692,36.5385429 72.3409128,32.1746491 69.1095994,32.1746491 C68.2463185,32.1746491 67.3892205,32.5095633 66.7632067,33.0569749 C65.743036,33.9662477 65.5621875,35.1080357 65.5621875,36.229036 C65.5621875,38.7959417 66.8404923,43.0297194 69.9960659,43.0297194 C71.0146909,43.0297194 72.054183,42.537742 72.6562383,41.7077706 L72.6562383,41.7077706 Z" id="Shape" fill="#575757"></path>
        <path d="M61.3756232,42.9080724 L57.8792199,43.7049373 C56.4625738,43.9274435 55.1904518,44.1237725 53.8433627,44.1237725 C47.0986431,44.1237725 44.5296677,39.1778209 44.5296677,35.3082143 C44.5296677,30.5809194 48.1705952,26.1993175 54.4052295,26.1993175 C55.7244957,26.1993175 56.9942991,26.3925669 58.1504926,26.7059234 C59.9829356,27.2194585 60.8392608,27.8507911 61.3756232,28.2218914 L59.3445561,30.1436061 L58.4882309,30.3345457 L59.0987877,29.3644494 C58.2718311,28.5598853 56.7516221,27.074714 53.8665484,27.074714 C50.0092211,27.074714 47.0986431,29.9957819 47.0986431,34.2603563 C47.0986431,38.8405969 50.4219265,43.1490566 55.75,43.1490566 C57.3158075,43.1490566 58.1218969,42.8357001 58.8537921,42.5431314 L58.8537921,38.6165509 L55.162629,38.8144197 L57.1195019,37.7673316 L62.2999598,37.7673316 L61.6669902,38.3747967 C61.495416,38.5195412 61.4730032,38.568816 61.4250861,38.7628353 C61.3995818,38.9845716 61.3763961,39.6898162 61.3763961,39.9377297 L61.3763961,42.9080724 L61.3756232,42.9080724 Z" id="Shape" fill="#575757"></path>
        <path d="M126.908454,41.8401965 L126.908454,48.4584094 L125.589188,48.4584094 L125.589188,31.6187685 L126.908454,31.6187685 L126.908454,33.5358637 C127.767098,32.297066 129.337542,31.3138811 131.162257,31.3138811 C134.432986,31.3138811 136.637173,33.786087 136.637173,37.6995788 C136.637173,41.5868935 134.432986,44.1106839 131.162257,44.1106839 C129.440332,44.1114538 127.89771,43.2268183 126.908454,41.8401965 L126.908454,41.8401965 Z M135.219754,37.7003488 C135.219754,34.7507939 133.676359,32.5010942 130.939674,32.5010942 C129.240162,32.5010942 127.614845,33.832282 126.908454,34.9917781 L126.908454,40.3819723 C127.614845,41.5445481 129.240162,42.9234707 130.939674,42.9234707 C133.676359,42.9234707 135.219754,40.6545231 135.219754,37.7003488 L135.219754,37.7003488 Z" id="Shape" fill="#434343"></path>
        <polygon id="Shape" fill="#434343" points="138.438702 43.8081062 138.438702 26.9692353 139.757195 26.9692353 139.757195 43.8081062 138.438702 43.8081062"></polygon>
        <path d="M154.560491,47.3689758 C154.84181,47.4937025 155.3233,47.5714642 155.629351,47.5714642 C156.436214,47.5714642 156.99808,47.2427093 157.502756,46.0809034 L158.464962,43.9097354 L153.267501,31.6187685 L154.73902,31.6187685 L159.196857,42.2698106 L163.611414,31.6187685 L165.1038,31.6187685 L158.765603,46.4881899 C158.107902,48.0203262 157.073047,48.7571375 155.651764,48.7571375 C155.225147,48.7571375 154.66328,48.6809156 154.333271,48.5808263 L154.560491,47.3689758 L154.560491,47.3689758 Z" id="Shape" fill="#434343"></path>
        <path d="M150.707028,43.7719201 C150.618922,43.3492353 150.552456,42.977365 150.503766,42.6655483 C150.462805,42.3552714 150.440392,42.0380653 150.440392,41.7154698 C149.987498,42.3768291 149.3468,42.9273203 148.528345,43.3615539 C147.709117,43.7973274 146.931623,44.0121344 145.863535,44.0121344 C144.578275,44.0121344 143.58129,43.6972381 142.868716,43.0582063 C142.159233,42.4199445 141.802174,41.5553269 141.802174,40.4612738 C141.802174,39.3687605 142.319215,38.4818153 143.350205,37.8035177 C144.381196,37.1221405 145.714374,36.7841467 147.362877,36.7841467 L150.439619,36.7841467 L150.439619,35.2689485 C150.439619,34.3966317 150.140524,33.7114049 149.545424,33.2132682 C148.947233,32.7159013 148.107911,32.4633683 147.018956,32.4633683 C146.024289,32.4633683 145.217427,32.6935737 144.603006,33.1416658 C143.993995,33.5989969 143.687944,34.1656564 143.687944,34.8485734 L142.337763,34.8485734 L142.30994,34.7831304 C142.260478,33.8630787 142.684003,33.0546651 143.582835,32.3578895 C144.47703,31.661114 145.650227,31.3108014 147.09315,31.3108014 C148.530663,31.3108014 149.694585,31.6557246 150.57255,32.344031 C151.44897,33.0254082 151.888725,34.010133 151.888725,35.2974355 L151.888725,41.311263 C151.888725,41.7431868 151.90882,42.1604823 151.963692,42.5669988 C152.019338,42.9742853 152.108217,43.3808019 152.226464,43.7734599 L150.707028,43.7734599 L150.707028,43.7719201 Z M146.025835,42.8141424 C147.146477,42.8141424 147.951794,42.5646891 148.775659,42.0711718 C149.593341,41.5799643 150.149025,40.9401626 150.441165,40.1656254 L150.441165,37.8250754 L147.349738,37.8250754 C146.168813,37.8250754 145.19115,38.0853076 144.422158,38.6111615 C143.65162,39.1347055 143.260554,39.7683478 143.260554,40.5051591 C143.260554,41.1996249 143.507868,41.7562754 144.000178,42.1774204 C144.492487,42.603185 145.166418,42.8141424 146.025835,42.8141424 L146.025835,42.8141424 Z" id="Shape" fill="#434343"></path>
        <path d="M44.4972077,13.156141 C44.4972077,10.5684475 46.4270307,8.90465523 48.8275233,8.90465523 C50.4358379,8.90465523 51.4869229,9.66841363 52.1430782,10.6054035 L50.9675633,11.2837011 C50.5223979,10.6669969 49.7425855,10.1865683 48.8275233,10.1865683 C47.1952501,10.1865683 45.9818653,11.4192066 45.9818653,13.156141 C45.9818653,14.869208 47.1944773,16.1257137 48.8275233,16.1257137 C49.6691642,16.1257137 50.4111065,15.7438345 50.7820777,15.3865927 L50.7820777,14.1169984 L48.3081637,14.1169984 L48.3081637,12.8481739 L52.2172724,12.8481739 L52.2172724,15.9162961 C51.4135015,16.81633 50.2503523,17.4199455 48.8275233,17.4199455 C46.4270307,17.4199455 44.4972077,15.7322858 44.4972077,13.156141 L44.4972077,13.156141 Z" id="Shape" fill="#4B4B4B"></path>
        <polygon id="Shape" fill="#4B4B4B" points="54.0072083 17.2598026 54.0072083 9.03939083 59.6598816 9.03939083 59.6598816 10.3089852 55.4539959 10.3089852 55.4539959 12.4285687 59.5740945 12.4285687 59.5740945 13.6981631 55.4539959 13.6981631 55.4539959 15.9909781 59.6598816 15.9909781 59.6598816 17.2598026 54.0072083 17.2598026"></polygon>
        <polygon id="Shape" fill="#4B4B4B" points="63.6655974 17.2598026 63.6655974 10.3097551 61.166952 10.3097551 61.166952 9.04016075 67.6118032 9.04016075 67.6118032 10.3097551 65.1139307 10.3097551 65.1139307 17.2598026"></polygon>
        <polygon id="Shape" fill="#4B4B4B" points="72.6423269 17.2598026 72.6423269 9.03939083 74.0891145 9.03939083 74.0891145 17.2598026"></polygon>
        <polygon id="Shape" fill="#4B4B4B" points="78.1203346 17.2598026 78.1203346 10.3097551 75.6216892 10.3097551 75.6216892 9.04016075 82.0665404 9.04016075 82.0665404 10.3097551 79.567895 10.3097551 79.567895 17.2598026"></polygon>
        <path d="M86.7384587,13.156141 C86.7384587,10.7031831 88.482796,8.90465523 90.9574829,8.90465523 C93.4182583,8.90465523 95.1757343,10.703953 95.1757343,13.156141 C95.1757343,15.608329 93.4182583,17.4076268 90.9574829,17.4076268 C88.4820232,17.4076268 86.7384587,15.608329 86.7384587,13.156141 L86.7384587,13.156141 Z M93.6910767,13.156141 C93.6910767,11.4553927 92.6144875,10.1865683 90.9574829,10.1865683 C89.2873398,10.1865683 88.2231162,11.4553927 88.2231162,13.156141 C88.2231162,14.8438007 89.2873398,16.1257137 90.9574829,16.1257137 C92.6144875,16.1257137 93.6910767,14.8438007 93.6910767,13.156141 L93.6910767,13.156141 Z" id="Shape" fill="#4B4B4B"></path>
        <polygon id="Shape" fill="#4B4B4B" points="102.618343 17.2598026 98.3135321 11.3814806 98.3135321 17.2598026 96.8667445 17.2598026 96.8667445 9.03939083 98.3514021 9.03939083 102.569653 14.7337025 102.569653 9.03939083 104.017214 9.03939083 104.017214 17.2598026"></polygon>
        <path d="M13.1803179,49.4729518 C12.7045905,49.344887 12.3949406,48.8728571 12.3949406,48.1424122 L12.3949406,24.0315007 C12.3949406,23.3549975 12.6571257,22.8987453 13.0727397,22.7328608 L13.0727397,22.7328608 L24.9284379,36.1695292 L13.1803179,49.4729518 L13.1803179,49.4729518 Z M14.81234,48.9611545 L29.0828591,40.8779469 L25.6070713,36.9386591 L14.81234,48.9611545 L14.81234,48.9611545 Z M29.1811272,31.3538377 L15.1094831,23.3814258 L25.6276475,35.3777532 L29.1811272,31.3538377 L29.1811272,31.3538377 Z M30.1358768,31.8947593 L35.6483722,35.0179113 C36.6920971,35.6092427 36.7016421,36.5624625 35.6483722,37.159063 L29.9964161,40.3604836 L26.3099031,36.1558891 L30.1358768,31.8947593 L30.1358768,31.8947593 Z" id="google-play" fill="#5D5D5D"></path>
    </g>
</svg>