<?xml version="1.0" encoding="UTF-8" standalone="no"?>
<svg width="200px" height="200px" viewBox="0 0 200 200" version="1.1" xmlns="http://www.w3.org/2000/svg" xmlns:xlink="http://www.w3.org/1999/xlink">
    <!-- Generator: Sketch 3.8.3 (29802) - http://www.bohemiancoding.com/sketch -->
    <title>img_provateGroup</title>
    <desc>Created with Sketch.</desc>
    <defs></defs>
    <g id="web_index_2" stroke="none" stroke-width="1" fill="none" fill-rule="evenodd">
        <g id="Group-7" transform="translate(-1.000000, -1.000000)" fill="#65727D">
            <g id="Page-1" transform="translate(0.857143, 0.142857)">
                <g id="Group-9" transform="translate(0.000000, 0.842857)">
                    <path d="M0.142857143,100.014286 C0.142857143,44.7858107 44.9177981,0.0142857143 100.142857,0.0142857143 C155.371332,0.0142857143 200.142857,44.7892267 200.142857,100.014286 C200.142857,155.242761 155.367916,200.014286 100.142857,200.014286 C44.9143822,200.014286 0.142857143,155.239345 0.142857143,100.014286 Z M43,87.3165784 L43,150.21955 C43,159.575998 50.567219,167.157143 59.9019121,167.157143 L137.525247,167.157143 C146.85994,167.157143 154.428571,159.575998 154.428571,150.21955 L154.428571,87.3165784 C154.428571,78.3763493 147.512676,71.0726846 138.751599,70.4398608 L138.751599,55.0298221 C138.751599,40.4239085 126.933118,28.5857143 112.359581,28.5857143 L85.0718162,28.5857143 C70.4968664,28.5857143 58.6755592,40.4239085 58.6755592,55.0298221 L58.6755592,70.4398608 C49.9144828,71.0712689 43,78.3735178 43,87.3165784 Z M108.714286,113.416408 C108.714286,107.592619 104.237407,102.871429 98.7140518,102.871429 C93.1911645,102.871429 88.7142857,107.592619 88.7142857,113.416408 C88.7142857,117.472093 90.8844258,120.991033 94.0668925,122.756176 L93.7141688,124.175493 L88.7142857,144.3 L98.7140518,144.3 L108.714286,144.3 L103.713935,124.175493 L103.361679,122.756176 C106.543678,120.991033 108.714286,117.472093 108.714286,113.416408 Z M69.9458553,55.0298221 C69.9458553,46.6742825 76.730356,39.8760275 85.0718162,39.8760275 L112.359581,39.8760275 C120.696803,39.8760275 127.482716,46.6742825 127.482716,55.0298221 L127.482716,70.3775694 L69.9458553,70.3775694 L69.9458553,55.0298221 Z" id="Combined-Shape"></path>
                </g>
            </g>
        </g>
    </g>
</svg>